Coordinates
version=1
nRows=21
nColumns=33
inDegrees=yes

Units are S.I. units (second, meters, Newtons, ...)
Angles are in degrees.

endheader
time	ground_thorax_rot_x	ground_thorax_rot_y	ground_thorax_rot_z	ground_thorax_tx	ground_thorax_ty	ground_thorax_tz	clav_prot_r	clav_elev_r	scapula_abduction_r	scapula_elevation_r	scapula_upward_rot_r	scapula_winging_r	shoulder_elv_r	plane_of_elev_r	axial_rot_r	elbow_flexion_r	pro_sup_r	wrist_flex_r	wrist_dev_r	clav_prot_l	clav_elev_l	scapula_abduction_l	scapula_elevation_l	scapula_upward_rot_l	scapula_winging_l	shoulder_elv_l	plane_of_elev_l	axial_rot_l	elbow_flexion_l	pro_sup_l	wrist_flex_l	wrist_dev_l
      1.61000000	      1.67222829	      1.64580598	     -1.22278120	     -0.14587893	      0.98869326	      0.00532653	     -7.92806068	      0.44180479	     -9.76950810	      5.76797676	      4.53539910	     -0.69300966	     51.59650786	    -41.37178286	     50.09574378	     80.68424432	     -8.69788077	     27.45702905	    -11.89024590	     -3.23089461	     -0.77127690	      2.47831356	     -6.26100920	     -2.35731296	      0.04399857	     39.50481837	    -49.38221976	    -18.46036684	     80.99867242	     18.27053649	    -27.20203099	    -22.51938773
      1.62000000	      1.65755947	      1.67754319	     -1.37403311	     -0.14594592	      0.98870874	      0.00552874	     -7.83641073	      0.43858457	     -9.70698113	      5.84804603	      4.33125964	     -0.65620054	     51.24541746	    -41.06106356	     48.56853123	     81.16651639	     -8.67478951	     24.64863940	    -10.56840909	     -2.91172006	     -0.91548299	      2.02354303	     -6.29569019	     -2.76276699	      0.06588042	     39.59270872	    -49.02524582	    -17.48492192	     81.78300064	     18.90756976	    -24.66046430	    -20.73936481
      1.63000000	      1.59902362	      1.59135159	     -1.61039366	     -0.14547603	      0.98891145	      0.00554677	     -7.95407537	      0.17340628	     -9.76890401	      5.55466713	      4.44846739	     -0.63992511	     51.11972637	    -40.69336777	     48.02989322	     81.35665725	     -8.67085414	     24.32911262	    -10.40896424	     -2.96803098	     -1.03998386	      2.10217833	     -6.18853819	     -2.78262671	      0.02308822	     39.58030585	    -48.67577327	    -16.97685311	     82.14582629	     19.02507060	    -24.35112546	    -20.49621917
      1.64000000	      1.58789764	      1.64816294	     -1.55467586	     -0.14515966	      0.98906966	      0.00566503	     -7.96742617	      0.14598406	     -9.84242366	      5.57402389	      4.33482008	     -0.59838481	     50.80719672	    -40.45586712	     46.85105213	     81.65741179	     -8.87827913	     22.43878523	     -9.49508137	     -2.85053540	     -1.10709265	      1.97053677	     -6.22716523	     -3.02678679	      0.00212138	     39.62758196	    -48.29071247	    -16.30254653	     82.71357177	     19.36944192	    -22.59622138	    -19.19018320
      1.65000000	      1.54094949	      1.57212397	     -1.81414914	     -0.14473826	      0.98892785	      0.00567602	     -8.04010733	     -0.06004924	     -9.84084654	      5.33411354	      4.45752498	     -0.60048567	     50.65651929	    -40.01881473	     46.23274174	     81.99141931	     -8.98533915	     21.90815720	     -9.22628830	     -2.86868070	     -1.20589734	      1.97912515	     -6.13674280	     -3.02892578	     -0.01584113	     39.64604612	    -47.84098851	    -15.83852162	     83.19539155	     19.44024235	    -22.10453232	    -18.78058411
      1.66000000	      1.55008846	      1.64170611	     -1.64202675	     -0.14454968	      0.98867704	      0.00566367	     -7.95825195	      0.06130224	     -9.80108746	      5.49924123	      4.32680665	     -0.59095949	     50.32716883	    -39.71231609	     45.02264661	     82.33024911	     -9.44605176	     19.53433851	     -7.97946960	     -2.71136502	     -1.15475315	      1.82601763	     -6.30715348	     -3.32727149	     -0.02340889	     39.68936409	    -47.31317981	    -15.20994771	     83.99328806	     19.80743919	    -19.84897675	    -17.00022304
      1.67000000	      1.53428264	      1.61766750	     -1.94558913	     -0.14409399	      0.98902210	      0.00559683	     -8.05287782	     -0.26045488	     -9.81638897	      5.16347330	      4.42170179	     -0.56555687	     50.14736859	    -39.20207748	     44.26060709	     82.35486410	     -9.61488088	     18.97138275	     -7.72786703	     -2.77349482	     -1.36984227	      1.88028381	     -6.10326314	     -3.31558713	     -0.06945105	     39.67854635	    -46.64782321	    -14.66452758	     84.32224079	     19.89891832	    -19.30880860	    -16.48519306
      1.68000000	      1.50736878	      1.66643898	     -1.75698376	     -0.14381086	      0.98873022	      0.00567901	     -7.99049650	     -0.13553231	     -9.81166144	      5.33111320	      4.29156738	     -0.55378648	     49.69649154	    -38.74812719	     42.99948777	     82.61757041	    -10.30201870	     16.65372293	     -6.49515906	     -2.68847672	     -1.26019434	      1.84468475	     -6.29923703	     -3.54502144	     -0.08298405	     39.72395027	    -45.92041673	    -14.06756820	     85.00355472	     20.20576114	    -16.95233970	    -14.42013881
      1.69000000	      1.49885521	      1.63118715	     -2.05994645	     -0.14320969	      0.98894284	      0.00565776	     -8.10572206	     -0.48620058	     -9.84221226	      4.95829760	      4.41190442	     -0.52538726	     49.51926013	    -38.19862437	     42.22794616	     82.66741322	    -10.50080476	     16.19205419	     -6.29958740	     -2.78168765	     -1.49679134	      1.93999412	     -6.06400563	     -3.50610244	     -0.13909287	     39.69467554	    -45.16061708	    -13.48817376	     85.30914095	     20.26074089	    -16.47610488	    -13.90476234
      1.70000000	      1.46403506	      1.70671667	     -1.87199834	     -0.14310263	      0.98852927	      0.00563834	     -7.96782799	     -0.32518556	     -9.74118106	      5.18263199	      4.22652520	     -0.52260404	     49.02296757	    -37.57494499	     40.91980751	     82.73993981	    -11.42012238	     13.60000098	     -4.89884208	     -2.68754220	     -1.33525988	      1.90506332	     -6.31357355	     -3.74894561	     -0.14629230	     39.79380656	    -44.12921694	    -12.94888199	     86.04229189	     20.63431930	    -13.54653322	    -11.24917027
      1.71000000	      1.48995212	      1.73353722	     -2.24926625	     -0.14261818	      0.98875693	      0.00553293	     -8.03395971	     -0.69445961	     -9.70163405	      4.81081669	      4.30393131	     -0.48870151	     48.84550677	    -36.92771574	     40.03224036	     82.64312590	    -11.69745621	     12.96858170	     -4.62902396	     -2.76061215	     -1.64677912	      1.94214530	     -6.00607609	     -3.70261352	     -0.19917988	     39.79223027	    -43.10321315	    -12.36919609	     86.29248103	     20.76505678	    -12.76266780	    -10.46218460
      1.72000000	      1.43082158	      1.78837187	     -1.97193644	     -0.14246669	      0.98846350	      0.00558507	     -7.90890121	     -0.59133498	     -9.62570049	      4.99882154	      4.07463739	     -0.46635801	     48.33697581	    -36.19273748	     38.77421063	     82.50089774	    -12.68455204	     10.55964102	     -3.39275020	     -2.71354813	     -1.49244513	      1.97769959	     -6.23514943	     -3.91238504	     -0.21863925	     39.92948723	    -41.93595616	    -11.92038600	     86.76273540	     21.01516108	     -9.75557847	     -7.68366310
      1.73000000	      1.48373443	      1.84712070	     -2.31302298	     -0.14201565	      0.98886266	      0.00550543	     -7.95895901	     -1.01730072	     -9.55774917	      4.58804476	      4.11968544	     -0.41889710	     48.17905749	    -35.50699950	     37.88286356	     82.21350961	    -12.97474864	      9.98879563	     -3.20113386	     -2.78106732	     -1.90577909	      1.97136286	     -5.82328764	     -3.84074492	     -0.27312927	     39.92973591	    -40.77189289	    -11.37172711	     86.69872315	     21.08357100	     -9.01769619	     -6.90369200
      1.74000000	      1.40839615	      1.88986818	     -2.11016926	     -0.14204265	      0.98838211	      0.00553919	     -7.78022390	     -0.94510245	     -9.40806848	      4.77515784	      3.82366018	     -0.39029290	     47.68816653	    -34.53588432	     36.60339199	     81.88772615	    -14.10341645	      7.56157785	     -1.98080658	     -2.69889110	     -1.75422946	      1.94211875	     -6.05192193	     -4.05531061	     -0.27523414	     40.16778578	    -39.32808388	    -11.04201886	     86.99991861	     21.14477872	     -5.78558226	     -3.91265355
      1.75000000	      1.39529628	      1.92820345	     -2.06041854	     -0.14182701	      0.98848828	      0.00549543	     -7.66196657	     -1.17892883	     -9.25925528	      4.67003725	      3.55108696	     -0.31590687	     47.47985664	    -33.67911221	     35.51223442	     81.42820665	    -14.81158401	      6.06902333	     -1.22255452	     -2.68357040	     -2.01676711	      1.93553461	     -5.89855491	     -4.27258880	     -0.35560046	     40.42001820	    -37.99041298	    -10.50357666	     86.97770848	     21.41643581	     -3.46014018	     -1.83706942
      1.76000000	      1.36887897	      1.96885593	     -2.10493549	     -0.14171826	      0.98844087	      0.00547784	     -7.54865175	     -1.40574753	     -9.08983495	      4.54618594	      3.34221446	     -0.26022092	     47.19421001	    -32.66861176	     34.46804888	     80.81997889	    -15.52359783	      4.75519171	     -0.61459795	     -2.65053614	     -2.21563178	      1.84613234	     -5.73353201	     -4.31761554	     -0.37493707	     40.58794836	    -36.51225067	    -10.15431771	     86.64672348	     21.38460319	     -1.56685668	     -0.09341800
      1.77000000	      1.42911246	      2.01877116	     -1.60040343	     -0.14136179	      0.98904186	      0.00535685	     -7.47589845	     -1.75818511	     -8.86684924	      4.23415945	      3.31600569	     -0.23192068	     47.14761923	    -32.29537486	     34.22387465	     79.97686848	    -15.60407089	      4.51579117	     -0.61192069	     -2.59641664	     -2.63181496	      1.61713315	     -5.31393702	     -4.23067632	     -0.37702210	     40.56638987	    -35.85485967	    -10.12581985	     85.86100275	     21.39594121	     -1.35696345	      0.18027116
      1.78000000	      1.29222128	      2.06545413	     -2.09325278	     -0.14163657	      0.98808830	      0.00538922	     -7.26457177	     -1.80858798	     -8.68650482	      4.36262464	      2.88212369	     -0.15841967	     46.47771922	    -30.45960775	     32.23997823	     79.12883563	    -17.13101863	      2.02817994	      0.58947235	     -2.48772234	     -2.48698917	      1.46142670	     -5.45635946	     -4.25084340	     -0.31096102	     40.69527969	    -33.34318847	     -9.57105952	     85.30171782	     20.64006529	      1.84211897	      3.36333310
      1.79000000	      1.33217536	      2.04695095	     -1.50697482	     -0.14127265	      0.98881204	      0.00540541	     -7.15743080	     -2.23875490	     -8.40466887	      3.99926717	      2.80887716	     -0.11606124	     46.40518593	    -30.03665170	     32.02584964	     78.09018926	    -17.19529590	      1.75972557	      0.58623660	     -2.40196213	     -2.99082666	      1.16506890	     -4.96538121	     -4.18278028	     -0.31997198	     40.69759971	    -32.69546214	     -9.48574159	     84.04659116	     20.68022722	      2.08004093	      3.71258505
      1.80000000	      1.38122721	      2.05505914	     -2.49226357	     -0.14118564	      0.98893841	      0.00525034	     -7.08118446	     -2.86536330	     -8.15075837	      3.46807313	      2.69863692	     -0.01031597	     46.08571037	    -28.41164472	     30.27328749	     76.88599242	    -17.84383708	      0.66602173	      0.88996592	     -2.34132986	     -3.55275675	      0.85902696	     -4.36892086	     -3.98620793	     -0.32528811	     40.64271418	    -30.39114514	     -8.62490904	     82.69229028	     20.30654244	      3.36292747	      5.16091556
      1.81000000	      1.19805126	      2.09608012	     -2.01212970	     -0.14183346	      0.98761210	      0.00507195	     -6.55251737	     -2.62052797	     -7.69410606	      4.05738725	      1.81196359	      0.03299419	     45.74315229	    -26.68195492	     28.77284750	     75.50860860	    -19.16611574	     -2.23405859	      2.33354510	     -1.97435221	     -3.12684717	      0.39978218	     -4.88529670	     -4.27784965	     -0.15391222	     40.82794049	    -28.19308391	     -8.39465931	     81.53797903	     19.20462880	      7.14688871	      8.53761175
